<?xml version="1.0" encoding="UTF-8" standalone="no"?>
<!DOCTYPE svg PUBLIC "-//W3C//DTD SVG 1.1//EN" "http://www.w3.org/Graphics/SVG/1.1/DTD/svg11.dtd">
<svg width="100%" height="100%" viewBox="0 0 1400 1400" version="1.1" xmlns="http://www.w3.org/2000/svg" xmlns:xlink="http://www.w3.org/1999/xlink" xml:space="preserve" xmlns:serif="http://www.serif.com/" style="fill-rule:evenodd;clip-rule:evenodd;stroke-linecap:round;stroke-linejoin:round;stroke-miterlimit:1.5;">
    <g transform="matrix(1,0,0,1,-722.811,-170.269)">
        <ellipse cx="1407.59" cy="856.72" rx="393.408" ry="383.338" style="fill:rgb(228,234,212);"/>
    </g>
    <g transform="matrix(1,0,0,1,-469.674,241.786)">
        <path d="M1664.8,357.269L1707.81,443.283L1621.79,443.283L1664.8,357.269Z" style="fill:rgb(105,186,201);"/>
    </g>
    <g transform="matrix(1,0,0,1,-575.847,568.467)">
        <path d="M1664.8,357.269L1707.81,443.283L1621.79,443.283L1664.8,357.269Z" style="fill:rgb(105,186,201);"/>
    </g>
    <g transform="matrix(1,0,0,1,-1401.54,608.737)">
        <path d="M1664.8,357.269L1707.81,443.283L1621.79,443.283L1664.8,357.269Z" style="fill:rgb(105,186,201);"/>
    </g>
    <g transform="matrix(1,0,0,1,-932.454,734.673)">
        <path d="M1664.8,357.269L1707.81,443.283L1621.79,443.283L1664.8,357.269Z" style="fill:rgb(105,186,201);"/>
    </g>
    <g transform="matrix(1,0,0,1,-1476.49,245.924)">
        <path d="M1664.8,357.269L1707.81,443.283L1621.79,443.283L1664.8,357.269Z" style="fill:rgb(105,186,201);"/>
    </g>
    <g transform="matrix(1,0,0,1,-1327.24,-90.4046)">
        <path d="M1664.8,357.269L1707.81,443.283L1621.79,443.283L1664.8,357.269Z" style="fill:rgb(105,186,201);"/>
    </g>
    <g transform="matrix(1,0,0,1,-964.346,-207.711)">
        <path d="M1664.8,357.269L1707.81,443.283L1621.79,443.283L1664.8,357.269Z" style="fill:rgb(105,186,201);"/>
    </g>
    <g transform="matrix(1,0,0,1,-591.095,-69.0987)">
        <path d="M1664.8,357.269L1707.81,443.283L1621.79,443.283L1664.8,357.269Z" style="fill:rgb(105,186,201);"/>
    </g>
    <g transform="matrix(15.0021,0,0,10.7514,-5987.71,-7384.04)">
        <g transform="matrix(5.95269,0,0,5.95269,413.153,750.144)">
        </g>
        <text x="409.842px" y="750.144px" style="font-family:'ArialMT', 'Arial', sans-serif;font-size:5.953px;fill:rgb(235,235,235);">1</text>
    </g>
    <g transform="matrix(10.7514,0,0,10.7514,-4109.25,-7722.05)">
        <g transform="matrix(5.95269,0,0,5.95269,414.807,750.144)">
        </g>
        <text x="411.496px" y="750.144px" style="font-family:'ArialMT', 'Arial', sans-serif;font-size:5.953px;fill:rgb(235,235,235);">2</text>
    </g>
    <g transform="matrix(10.1715,0,0,9.42797,-3505.24,-6844.46)">
        <g transform="matrix(5.95269,0,0,5.95269,416.46,750.144)">
        </g>
        <text x="411.496px" y="750.144px" style="font-family:'ArialMT', 'Arial', sans-serif;font-size:5.953px;fill:rgb(235,235,235);">3</text>
    </g>
    <g transform="matrix(10.7514,0,0,10.7514,-3368.43,-7701.13)">
        <g transform="matrix(5.95269,0,0,5.95269,414.807,750.144)">
        </g>
        <text x="411.496px" y="750.144px" style="font-family:'ArialMT', 'Arial', sans-serif;font-size:5.953px;fill:rgb(235,235,235);">4</text>
    </g>
    <g transform="matrix(10.7514,0,0,10.7514,-3263.87,-7391.08)">
        <g transform="matrix(5.95269,0,0,5.95269,416.46,750.144)">
        </g>
        <text x="413.15px" y="750.144px" style="font-family:'ArialMT', 'Arial', sans-serif;font-size:5.953px;fill:rgb(235,235,235);">5</text>
    </g>
    <g transform="matrix(8.20666,0,0,8.20666,-3194.72,-5103.98)">
        <g transform="matrix(5.95269,0,0,5.95269,432.008,750.144)">
        </g>
        <text x="409.842px" y="750.144px" style="font-family:'ArialMT', 'Arial', sans-serif;font-size:5.953px;">player N</text>
    </g>
    <g transform="matrix(8.20666,0,0,8.20666,-2360.47,-5150.86)">
        <g transform="matrix(5.95269,0,0,5.95269,441.265,750.144)">
        </g>
        <text x="409.842px" y="750.144px" style="font-family:'ArialMT', 'Arial', sans-serif;font-size:5.953px;">player (N-2)</text>
    </g>
    <g transform="matrix(8.20666,0,0,8.20666,-2717.94,-4970.76)">
        <text x="409.842px" y="750.144px" style="font-family:'ArialMT', 'Arial', sans-serif;font-size:5.953px;">player (N-1)</text>
    </g>
    <g transform="matrix(0.178381,0,0,0.178381,466.95,216.395)">
        <g transform="matrix(12.67,0,0,15.8371,-10933,-8592.21)">
            <rect x="936.841" y="579.103" width="68.308" height="31.122" style="fill:rgb(240,39,18);stroke:black;stroke-width:0.39px;"/>
        </g>
        <g transform="matrix(1.17271,0,0,1.17271,-316.011,-77.3851)">
            <g transform="matrix(87.128,0,0,87.128,1603.66,860.82)">
            </g>
            <text x="1463.27px" y="860.82px" style="font-family:'ArialMT', 'Arial', sans-serif;font-size:87.128px;fill:rgb(235,235,235);">min</text>
        </g>
        <g transform="matrix(2.34037,0,0,1.64459,-1536.05,-496.46)">
            <g transform="matrix(139.716,0,0,139.716,1243.03,870.21)">
            </g>
            <text x="1149.84px" y="870.21px" style="font-family:'ArialMT', 'Arial', sans-serif;font-size:139.716px;fill:rgb(235,235,235);">X</text>
        </g>
    </g>
    <g transform="matrix(0.179444,0,0,0.179444,695.288,765.298)">
        <g transform="matrix(12.67,0,0,15.8371,-10933,-8592.21)">
            <rect x="936.841" y="579.103" width="68.308" height="31.122" style="fill:rgb(240,39,18);stroke:black;stroke-width:0.39px;"/>
        </g>
        <g transform="matrix(1.17271,0,0,1.17271,-316.011,-77.3851)">
            <g transform="matrix(87.128,0,0,87.128,1627.86,860.82)">
            </g>
            <text x="1463.27px" y="860.82px" style="font-family:'ArialMT', 'Arial', sans-serif;font-size:87.128px;fill:rgb(235,235,235);">max</text>
        </g>
        <g transform="matrix(2.34037,0,0,1.64459,-1536.05,-496.46)">
            <g transform="matrix(139.716,0,0,139.716,1243.03,870.21)">
            </g>
            <text x="1149.84px" y="870.21px" style="font-family:'ArialMT', 'Arial', sans-serif;font-size:139.716px;fill:rgb(235,235,235);">X</text>
        </g>
    </g>
    <g transform="matrix(0.145312,0,0,0.145312,825.076,543.746)">
        <g transform="matrix(12.67,0,0,15.8371,-10933,-8592.21)">
            <rect x="936.841" y="579.103" width="68.308" height="31.122" style="fill:rgb(72,134,32);stroke:black;stroke-width:0.48px;"/>
        </g>
        <g transform="matrix(1.17271,0,0,1.17271,-316.011,-77.3851)">
            <g transform="matrix(87.128,0,0,87.128,1511.72,860.82)">
            </g>
            <text x="1463.27px" y="860.82px" style="font-family:'ArialMT', 'Arial', sans-serif;font-size:87.128px;fill:rgb(235,235,235);">5</text>
        </g>
        <g transform="matrix(2.34037,0,0,1.64459,-1536.05,-496.46)">
            <g transform="matrix(139.716,0,0,139.716,1243.03,870.21)">
            </g>
            <text x="1149.84px" y="870.21px" style="font-family:'ArialMT', 'Arial', sans-serif;font-size:139.716px;fill:rgb(235,235,235);">X</text>
        </g>
    </g>
    <g transform="matrix(0.140917,0,0,0.140917,734.076,353.79)">
        <g transform="matrix(12.67,0,0,15.8371,-10933,-8592.21)">
            <rect x="936.841" y="579.103" width="68.308" height="31.122" style="fill:rgb(72,134,32);stroke:black;stroke-width:0.49px;"/>
        </g>
        <g transform="matrix(1.17271,0,0,1.17271,-316.011,-77.3851)">
            <g transform="matrix(87.128,0,0,87.128,1511.72,860.82)">
            </g>
            <text x="1463.27px" y="860.82px" style="font-family:'ArialMT', 'Arial', sans-serif;font-size:87.128px;fill:rgb(235,235,235);">4</text>
        </g>
        <g transform="matrix(2.34037,0,0,1.64459,-1536.05,-496.46)">
            <g transform="matrix(139.716,0,0,139.716,1243.03,870.21)">
            </g>
            <text x="1149.84px" y="870.21px" style="font-family:'ArialMT', 'Arial', sans-serif;font-size:139.716px;fill:rgb(235,235,235);">X</text>
        </g>
    </g>
    <g transform="matrix(0.162059,0,0,0.162059,165.098,527.971)">
        <g transform="matrix(12.67,0,0,15.8371,-10933,-8592.21)">
            <rect x="936.841" y="579.103" width="68.308" height="31.122" style="fill:rgb(72,134,32);stroke:black;stroke-width:0.43px;"/>
        </g>
        <g transform="matrix(1.17271,0,0,1.17271,-316.011,-77.3851)">
            <g transform="matrix(87.128,0,0,87.128,1511.72,860.82)">
            </g>
            <text x="1463.27px" y="860.82px" style="font-family:'ArialMT', 'Arial', sans-serif;font-size:87.128px;fill:rgb(235,235,235);">1</text>
        </g>
        <g transform="matrix(2.34037,0,0,1.64459,-1536.05,-496.46)">
            <g transform="matrix(139.716,0,0,139.716,1243.03,870.21)">
            </g>
            <text x="1149.84px" y="870.21px" style="font-family:'ArialMT', 'Arial', sans-serif;font-size:139.716px;fill:rgb(235,235,235);">X</text>
        </g>
    </g>
    <g transform="matrix(0.159633,0,0,0.159633,246.493,318.621)">
        <g transform="matrix(12.67,0,0,15.8371,-10933,-8592.21)">
            <rect x="936.841" y="579.103" width="68.308" height="31.122" style="fill:rgb(72,134,32);stroke:black;stroke-width:0.44px;"/>
        </g>
        <g transform="matrix(1.17271,0,0,1.17271,-316.011,-77.3851)">
            <g transform="matrix(87.128,0,0,87.128,1511.72,860.82)">
            </g>
            <text x="1463.27px" y="860.82px" style="font-family:'ArialMT', 'Arial', sans-serif;font-size:87.128px;fill:rgb(235,235,235);">2</text>
        </g>
        <g transform="matrix(2.34037,0,0,1.64459,-1536.05,-496.46)">
            <g transform="matrix(139.716,0,0,139.716,1243.03,870.21)">
            </g>
            <text x="1149.84px" y="870.21px" style="font-family:'ArialMT', 'Arial', sans-serif;font-size:139.716px;fill:rgb(235,235,235);">X</text>
        </g>
    </g>
    <g transform="matrix(0.159106,0,0,0.159106,222.69,820.984)">
        <g transform="matrix(12.67,0,0,15.8371,-10933,-8592.21)">
            <rect x="936.841" y="579.103" width="68.308" height="31.122" style="fill:rgb(72,134,32);stroke:black;stroke-width:0.44px;"/>
        </g>
        <g transform="matrix(1.17271,0,0,1.17271,-316.011,-77.3851)">
            <g transform="matrix(87.128,0,0,87.128,1511.72,860.82)">
            </g>
            <text x="1463.27px" y="860.82px" style="font-family:'ArialMT', 'Arial', sans-serif;font-size:87.128px;fill:rgb(235,235,235);">n</text>
        </g>
        <g transform="matrix(2.34037,0,0,1.64459,-1536.05,-496.46)">
            <g transform="matrix(139.716,0,0,139.716,1243.03,870.21)">
            </g>
            <text x="1149.84px" y="870.21px" style="font-family:'ArialMT', 'Arial', sans-serif;font-size:139.716px;fill:rgb(235,235,235);">X</text>
        </g>
    </g>
    <g transform="matrix(0.151369,0,0,0.151369,517.259,904.032)">
        <g transform="matrix(12.67,0,0,15.8371,-10933,-8592.21)">
            <rect x="936.841" y="579.103" width="68.308" height="31.122" style="fill:rgb(72,134,32);stroke:black;stroke-width:0.46px;"/>
        </g>
        <g transform="matrix(1.17271,0,0,1.17271,-316.011,-77.3851)">
            <g transform="matrix(87.128,0,0,87.128,1589.19,860.82)">
            </g>
            <text x="1463.27px" y="860.82px" style="font-family:'ArialMT', 'Arial', sans-serif;font-size:87.128px;fill:rgb(235,235,235);">n-1</text>
        </g>
        <g transform="matrix(2.34037,0,0,1.64459,-1536.05,-496.46)">
            <g transform="matrix(139.716,0,0,139.716,1243.03,870.21)">
            </g>
            <text x="1149.84px" y="870.21px" style="font-family:'ArialMT', 'Arial', sans-serif;font-size:139.716px;fill:rgb(235,235,235);">X</text>
        </g>
    </g>
</svg>
